<?xml version="1.0" standalone="no"?>
<!DOCTYPE svg PUBLIC "-//W3C//DTD SVG 20010904//EN"
 "http://www.w3.org/TR/2001/REC-SVG-20010904/DTD/svg10.dtd">
<svg version="1.0" xmlns="http://www.w3.org/2000/svg"
 width="539.000000pt" height="556.000000pt" viewBox="0 0 539.000000 556.000000"
 preserveAspectRatio="xMidYMid meet">
<metadata>
Created by potrace 1.16, written by Peter Selinger 2001-2019
</metadata>
<g transform="translate(0.000000,556.000000) scale(0.100000,-0.100000)"
fill="currentColor" stroke="none">
<path d="M695 5544 c-338 -72 -610 -347 -679 -686 -20 -95 -20 -280 -2 -368
35 -163 123 -326 241 -444 61 -61 191 -156 213 -156 7 0 12 83 14 238 4 226 5
241 31 318 67 202 235 370 438 439 76 25 101 29 251 33 247 6 385 -20 553
-105 181 -91 285 -193 439 -427 62 -94 132 -190 156 -213 158 -158 427 -180
619 -52 75 50 105 86 217 264 143 225 274 349 465 439 153 72 224 87 445 93
171 5 199 3 275 -16 137 -34 220 -82 325 -186 75 -74 98 -105 132 -175 63
-131 72 -182 72 -432 0 -169 3 -218 13 -218 23 0 149 92 212 154 116 116 197
262 237 423 27 110 28 293 4 398 -74 315 -290 554 -596 658 l-95 32 -1955 2
c-1700 1 -1964 0 -2025 -13z M2027 1670 c-45 -13 -95 -57 -119 -103 -18 -35
-23 -67 -29 -197 -8 -175 -21 -229 -79 -346 -48 -99 -152 -215 -243 -272 -347
-218 -791 -105 -992 253 -68 122 -78 174 -83 433 -2 127 -8 232 -12 232 -22 0
-162 -106 -221 -167 -116 -120 -191 -257 -230 -419 -18 -77 -20 -109 -16 -234
4 -127 9 -157 36 -240 87 -269 297 -480 571 -573 l95 -32 1950 -3 c2143 -3
2019 -6 2175 57 205 84 369 237 465 434 62 128 87 242 88 392 0 249 -88 460
-265 631 -66 64 -188 154 -210 154 -4 0 -8 -93 -8 -207 0 -236 -10 -302 -63
-415 -113 -242 -335 -391 -602 -405 -131 -7 -222 13 -345 73 -175 87 -316 260
-366 449 -8 33 -19 130 -23 217 -7 147 -9 159 -34 197 -40 61 -97 94 -168 99
-105 8 -145 -17 -258 -158 -19 -23 -61 -60 -95 -82 -215 -139 -486 -86 -641
126 -60 81 -121 116 -199 115 -28 0 -64 -5 -79 -9z"/>
</g>
</svg>
