<?xml version="1.0" standalone="no"?>
<!DOCTYPE svg PUBLIC "-//W3C//DTD SVG 20010904//EN"
 "http://www.w3.org/TR/2001/REC-SVG-20010904/DTD/svg10.dtd">
<svg version="1.0" xmlns="http://www.w3.org/2000/svg"
 width="539.000000pt" height="556.000000pt" viewBox="0 0 539.000000 556.000000"
 preserveAspectRatio="xMidYMid meet">
<metadata>
Created by potrace 1.16, written by Peter Selinger 2001-2019
</metadata>
<g transform="translate(0.000000,556.000000) scale(0.100000,-0.100000)"
fill="#000000" stroke="none">
<path d="M1 5178 c1 -365 1 -380 15 -313 60 279 264 524 527 630 45 19 114 40
152 49 67 14 52 14 -312 15 l-383 1 1 -382z"/>
<path d="M4650 5553 c14 -2 68 -17 120 -33 328 -101 573 -400 610 -745 4 -41
8 104 9 358 l1 427 -382 -1 c-211 -1 -372 -4 -358 -6z"/>
<path d="M1025 4905 c-237 -51 -436 -229 -512 -459 -26 -77 -27 -93 -31 -318
-2 -155 -7 -238 -14 -238 -22 0 -152 95 -213 156 -116 116 -206 280 -240 439
-11 50 -13 -226 -14 -1705 l0 -1765 23 91 c42 160 127 305 248 420 58 56 180
144 199 144 4 0 9 -105 11 -233 4 -207 7 -240 27 -302 126 -389 551 -595 921
-448 203 81 367 262 426 473 9 31 19 122 23 210 6 139 9 160 31 200 37 66 93
101 173 107 95 8 155 -23 222 -113 122 -167 328 -242 512 -186 85 26 178 85
224 142 113 141 153 166 258 158 71 -5 128 -38 168 -99 25 -38 27 -50 34 -197
4 -87 15 -184 23 -217 50 -189 191 -362 366 -449 123 -60 214 -80 345 -73 267
14 489 163 602 405 53 113 63 179 63 415 0 114 4 207 8 207 22 0 144 -90 210
-154 148 -143 238 -324 262 -525 4 -36 7 767 7 1784 0 1018 -3 1823 -7 1790
-27 -200 -115 -380 -255 -521 -63 -62 -189 -154 -212 -154 -10 0 -13 49 -13
218 0 250 -9 301 -72 432 -34 70 -57 101 -132 175 -105 104 -188 152 -325 186
-76 19 -104 21 -275 16 -221 -6 -292 -21 -445 -93 -191 -90 -322 -214 -465
-439 -112 -178 -142 -214 -217 -264 -192 -128 -461 -106 -619 52 -24 23 -94
119 -156 213 -64 97 -140 199 -176 235 -145 147 -336 248 -538 285 -96 17
-375 17 -455 -1z"/>
<path d="M5380 803 c0 -76 -37 -211 -85 -310 -118 -242 -344 -421 -606 -478
-59 -12 -33 -13 319 -14 l382 -1 0 425 c0 234 -2 425 -5 425 -3 0 -5 -21 -5
-47z"/>
<path d="M1 378 l-1 -378 378 1 c207 1 366 4 352 6 -14 2 -68 17 -120 33 -266
82 -488 304 -570 570 -16 52 -31 106 -33 120 -2 14 -5 -145 -6 -352z"/>
</g>
</svg>
